<svg width="16.000977" height="16.000000" viewBox="0 0 16.001 16" fill="none" xmlns="http://www.w3.org/2000/svg" xmlns:xlink="http://www.w3.org/1999/xlink">
	<desc>
			Created with Pixso.
	</desc>
	<defs>
		<clipPath id="clip2_7857">
			<rect id="Icon / Filled / Error" rx="0.031250" width="15.938217" height="15.937500" transform="translate(0.031250 0.031250)" fill="white" fill-opacity="0"/>
		</clipPath>
	</defs>
	<rect id="Icon / Filled / Error" rx="0.031250" width="15.938217" height="15.937500" transform="translate(0.031250 0.031250)" fill="#FFFFFF" fill-opacity="0"/>
	<g clip-path="url(#clip2_7857)">
		<path id="Vector" d="M14.8 11.75L9.33 2.26C9.19 2.03 9 1.83 8.76 1.7C8.53 1.57 8.27 1.5 8 1.5C7.73 1.5 7.46 1.57 7.23 1.7C6.99 1.83 6.8 2.03 6.66 2.26L1.2 11.75C1.06 11.98 1 12.23 1 12.49C1 12.75 1.06 13.01 1.2 13.23C1.33 13.47 1.53 13.66 1.76 13.79C1.99 13.93 2.26 14 2.53 14L13.46 14C13.73 14 14 13.93 14.23 13.79C14.47 13.66 14.66 13.47 14.79 13.23C14.93 13.01 15 12.75 15 12.49C15 12.23 14.93 11.98 14.8 11.75ZM7.5 6.5C7.5 6.36 7.55 6.24 7.64 6.14C7.74 6.05 7.86 6 8 6C8.13 6 8.26 6.05 8.35 6.14C8.44 6.24 8.5 6.36 8.5 6.5L8.5 9C8.5 9.13 8.44 9.25 8.35 9.35C8.26 9.44 8.13 9.5 8 9.5C7.86 9.5 7.74 9.44 7.64 9.35C7.55 9.25 7.5 9.13 7.5 9L7.5 6.5ZM8 12C7.85 12 7.7 11.95 7.58 11.87C7.46 11.79 7.36 11.67 7.3 11.53C7.25 11.39 7.23 11.24 7.26 11.1C7.29 10.95 7.36 10.82 7.47 10.71C7.57 10.61 7.7 10.54 7.85 10.51C8 10.48 8.15 10.5 8.28 10.55C8.42 10.61 8.54 10.71 8.62 10.83C8.7 10.95 8.75 11.1 8.75 11.25C8.75 11.44 8.67 11.63 8.53 11.78C8.39 11.92 8.19 12 8 12Z" fill="#E6674E" fill-opacity="1.000000" fill-rule="nonzero"/>
	</g>
</svg>
